# Blender v2.76 (sub 0) OBJ File: 'ship_finished.blend'
# www.blender.org
o Cube
v 0.071130 1.174649 3.384228
v -0.190202 2.289134 -0.612892
v 0.223400 2.289134 -0.606713
v -0.910605 1.887325 -1.622185
v 0.943687 1.887325 -1.650918
v -0.295780 2.891950 -1.863111
v 0.310273 2.891950 -1.852378
v 0.014773 2.009591 -3.029469
v -1.588164 2.667404 -0.673624
v -1.608657 2.667404 -3.929781
v 1.614103 2.667404 -0.677976
v 1.577873 2.667404 -3.922829
v -1.848866 2.667404 -1.705965
v 1.883659 2.667404 -1.756142
v 1.275766 1.667404 -0.892053
v 2.766363 1.667404 -5.338203
v -1.496879 1.667404 -0.946759
v -2.319733 1.667404 -5.392906
vn 0.004000 -0.963200 -0.268800
vn -0.696700 -0.683600 -0.217500
vn 0.702200 -0.672600 -0.233400
vn 0.007700 -0.900500 -0.434800
vn -0.010700 -0.798800 0.601500
vn -0.771100 -0.550400 -0.320100
vn 0.768000 -0.549100 -0.329600
vn -0.778500 -0.392600 0.489700
vn 0.791500 -0.367200 0.488600
vn 0.348700 0.929900 0.116900
vn 0.295000 -0.954000 -0.054600
vn 0.006500 -0.900300 -0.435200
vn 0.002200 0.990100 0.140500
vn -0.634200 -0.770100 -0.068500
vn 0.630200 -0.771300 -0.088900
vn -0.639400 -0.751700 0.161500
vn 0.640900 -0.750700 0.160200
vn 0.001400 0.996200 0.087400
s off
f 2//1 3//1 1//1
f 3//2 5//2 1//2
f 2//3 1//3 4//3
f 2//4 6//4 7//4
f 7//5 6//5 8//5
f 5//6 3//6 7//6
f 4//7 6//7 2//7
f 7//8 8//8 5//8
f 6//9 4//9 8//9
f 15//10 16//10 5//10
f 17//11 18//11 4//11
f 3//12 2//12 7//12
f 1//13 5//13 4//13
f 13//14 10//14 4//14
f 5//15 12//15 14//15
f 9//16 13//16 4//16
f 11//17 5//17 14//17
f 5//18 8//18 4//18
